<?xml version="1.0" encoding="UTF-8" standalone="no"?>
<svg xmlns:dc="http://purl.org/dc/elements/1.1/" xmlns:cc="http://creativecommons.org/ns#" xmlns:rdf="http://www.w3.org/1999/02/22-rdf-syntax-ns#" xmlns:svg="http://www.w3.org/2000/svg" xmlns="http://www.w3.org/2000/svg" xmlns:sodipodi="http://sodipodi.sourceforge.net/DTD/sodipodi-0.dtd" xmlns:inkscape="http://www.inkscape.org/namespaces/inkscape" width="480" height="480" viewBox="0 0 480 480.00001" id="svg11182" version="1.1" inkscape:version="0.91 r13725" sodipodi:docname="turkey-turkish-asian-country-flag.svg">
  <defs id="defs11184">
    <clipPath clipPathUnits="userSpaceOnUse" id="clipPath29920-8-2-1">
      <ellipse ry="248.57143" rx="260" cy="506.64789" cx="-514.28571" style="fill:#a9b3c1;fill-opacity:1;stroke:none" id="path29922-3-3-5" transform="matrix(0.68483669,0,0,0.71632344,705.09921,116.38888)"/>
    </clipPath>
    <clipPath clipPathUnits="userSpaceOnUse" id="clipPath29920-8-2-1-6">
      <ellipse ry="248.57143" rx="260" cy="506.64789" cx="-514.28571" style="fill:#a9b3c1;fill-opacity:1;stroke:none" id="path29922-3-3-5-7" transform="matrix(0.68483669,0,0,0.71632344,705.09921,116.38888)"/>
    </clipPath>
  </defs>
  <sodipodi:namedview id="base" pagecolor="#ffffff" bordercolor="#666666" borderopacity="1.0" inkscape:pageopacity="0.0" inkscape:pageshadow="2" inkscape:zoom="0.49497475" inkscape:cx="-580.98312" inkscape:cy="168.29221" inkscape:document-units="px" inkscape:current-layer="layer1" showgrid="false" units="px" inkscape:window-width="1366" inkscape:window-height="716" inkscape:window-x="-8" inkscape:window-y="-8" inkscape:window-maximized="1"/>
  
  <g inkscape:label="Layer 1" inkscape:groupmode="layer" id="layer1" transform="translate(0,-572.36216)">
    <g style="display:inline" id="g12913" transform="translate(23852.504,4919.5985)">
      <path id="path12907" d="m -23796.504,-3867.2363 c -30.886,0 -56,-25.1144 -56,-56 l 0,-368 c 0,-30.8857 25.114,-56 56,-56 l 368,0 c 30.886,0 56,25.1143 56,56 l 0,368 c 0,30.8856 -25.114,56 -56,56 l -368,0 z" style="color:#000000;font-style:normal;font-variant:normal;font-weight:normal;font-stretch:normal;font-size:medium;line-height:normal;font-family:sans-serif;text-indent:0;text-align:start;text-decoration:none;text-decoration-line:none;text-decoration-style:solid;text-decoration-color:#000000;letter-spacing:normal;word-spacing:normal;text-transform:none;direction:ltr;block-progression:tb;writing-mode:lr-tb;baseline-shift:baseline;text-anchor:start;white-space:normal;clip-rule:nonzero;display:inline;overflow:visible;visibility:visible;opacity:1;isolation:auto;mix-blend-mode:normal;color-interpolation:sRGB;color-interpolation-filters:linearRGB;solid-color:#000000;solid-opacity:1;fill:#3b3c3d;fill-opacity:1;fill-rule:nonzero;stroke:none;stroke-width:15.99999905;stroke-linecap:butt;stroke-linejoin:miter;stroke-miterlimit:4;stroke-dasharray:none;stroke-dashoffset:0;stroke-opacity:1;color-rendering:auto;image-rendering:auto;shape-rendering:auto;text-rendering:auto;enable-background:accumulate" inkscape:connector-curvature="0"/>
      <path id="rect10074" d="m -23796.504,-3883.2363 368,0 c 22.298,0 40,-17.7017 40,-40 l 0,-368 c 0,-22.2984 -17.702,-40 -40,-40 l -368,0 c -22.298,0 -40,17.7016 -40,40 l 0,368 c 0,22.2983 17.702,40 40,40 z" style="color:#000000;font-style:normal;font-variant:normal;font-weight:normal;font-stretch:normal;font-size:medium;line-height:normal;font-family:sans-serif;text-indent:0;text-align:start;text-decoration:none;text-decoration-line:none;text-decoration-style:solid;text-decoration-color:#000000;letter-spacing:normal;word-spacing:normal;text-transform:none;direction:ltr;block-progression:tb;writing-mode:lr-tb;baseline-shift:baseline;text-anchor:start;white-space:normal;clip-rule:nonzero;display:inline;overflow:visible;visibility:visible;opacity:1;isolation:auto;mix-blend-mode:normal;color-interpolation:sRGB;color-interpolation-filters:linearRGB;solid-color:#000000;solid-opacity:1;fill:#ea6153;fill-opacity:1;fill-rule:nonzero;stroke:none;stroke-width:15.99999905;stroke-linecap:butt;stroke-linejoin:miter;stroke-miterlimit:4;stroke-dasharray:none;stroke-dashoffset:0;stroke-opacity:1;color-rendering:auto;image-rendering:auto;shape-rendering:auto;text-rendering:auto;enable-background:accumulate" inkscape:connector-curvature="0"/>
      <path id="path6120" d="m -23624.546,-4018.1093 c -49.261,0 -89.16,-39.8959 -89.16,-89.1345 0,-49.1858 39.899,-89.116 89.16,-89.116 24.548,0 46.78,9.925 62.859,26.0009 -19.95,-28.5497 -53.033,-47.2087 -90.45,-47.2087 -60.94,0 -110.367,49.3921 -110.367,110.3238 0,60.9739 49.427,110.3396 110.367,110.3396 37.417,0 70.5,-18.6854 90.45,-47.1822 -16.079,16.0124 -38.311,25.9771 -62.859,25.9771" style="fill:#ffffff;fill-opacity:1;fill-rule:nonzero;stroke:none" inkscape:connector-curvature="0"/>
      <path id="path6122" d="m -23517.72,-4154.5398 20.578,29.6956 34.638,-10.4146 -21.901,28.7798 20.578,29.7486 -34.109,-11.9788 -21.901,28.7773 0.794,-36.1563 -34.109,-11.9815 34.638,-10.314 0.794,-36.1561" style="fill:#ffffff;fill-opacity:1;fill-rule:nonzero;stroke:none" inkscape:connector-curvature="0"/>
    </g>
  </g>

	<metadata>
		<rdf:RDF xmlns:rdf="http://www.w3.org/1999/02/22-rdf-syntax-ns#" xmlns:rdfs="http://www.w3.org/2000/01/rdf-schema#" xmlns:dc="http://purl.org/dc/elements/1.1/">
			<rdf:Description about="https://iconscout.com/legal#licenses" dc:title="turkey-turkish-asian-country-flag" dc:description="turkey-turkish-asian-country-flag" dc:publisher="Iconscout" dc:date="2017-06-25" dc:format="image/svg+xml" dc:language="en">
				<dc:creator>
					<rdf:Bag>
						<rdf:li>Vignesh Oviyan</rdf:li>
					</rdf:Bag>
				</dc:creator>
			</rdf:Description>
		</rdf:RDF>
    </metadata></svg>
